<svg id="visual" viewBox="0 0 900 600" width="900" height="600" xmlns="http://www.w3.org/2000/svg" xmlns:xlink="http://www.w3.org/1999/xlink" version="1.1"><g stroke-width="1" stroke-linejoin="bevel"><path d="M402 303L425 189L333 231Z" fill="#009ca7" stroke="#009ca7"></path><path d="M402 303L522 197L425 189Z" fill="#00d9da" stroke="#00d9da"></path><path d="M333 231L324 368L402 303Z" fill="#00d9da" stroke="#00d9da"></path><path d="M478 374L539 299L402 303Z" fill="#009ca7" stroke="#009ca7"></path><path d="M402 303L539 299L522 197Z" fill="#0d6370" stroke="#0d6370"></path><path d="M431 409L478 374L402 303Z" fill="#009ca7" stroke="#009ca7"></path><path d="M333 231L264 332L324 368Z" fill="#018895" stroke="#018895"></path><path d="M522 197L436 78L425 189Z" fill="#0e2f39" stroke="#0e2f39"></path><path d="M425 189L321 68L333 231Z" fill="#018895" stroke="#018895"></path><path d="M333 231L221 226L264 332Z" fill="#0f404b" stroke="#0f404b"></path><path d="M324 368L431 409L402 303Z" fill="#0d6370" stroke="#0d6370"></path><path d="M230 79L221 226L333 231Z" fill="#009ca7" stroke="#009ca7"></path><path d="M660 396L567 266L539 299Z" fill="#0f404b" stroke="#0f404b"></path><path d="M539 299L567 266L522 197Z" fill="#00c4ca" stroke="#00c4ca"></path><path d="M436 78L321 68L425 189Z" fill="#0b2027" stroke="#0b2027"></path><path d="M599 115L513 70L522 197Z" fill="#0d6370" stroke="#0d6370"></path><path d="M522 197L513 70L436 78Z" fill="#009ca7" stroke="#009ca7"></path><path d="M436 78L386 0L321 68Z" fill="#00c4ca" stroke="#00c4ca"></path><path d="M324 368L402 465L431 409Z" fill="#0e2f39" stroke="#0e2f39"></path><path d="M526 486L583 419L478 374Z" fill="#0f515e" stroke="#0f515e"></path><path d="M262 502L402 465L324 368Z" fill="#0f515e" stroke="#0f515e"></path><path d="M221 226L166 268L264 332Z" fill="#00c4ca" stroke="#00c4ca"></path><path d="M264 332L238 430L324 368Z" fill="#00c4ca" stroke="#00c4ca"></path><path d="M106 217L166 268L221 226Z" fill="#00c4ca" stroke="#00c4ca"></path><path d="M321 68L230 79L333 231Z" fill="#0e2f39" stroke="#0e2f39"></path><path d="M695 235L622 200L567 266Z" fill="#0d6370" stroke="#0d6370"></path><path d="M567 266L622 200L522 197Z" fill="#0f515e" stroke="#0f515e"></path><path d="M622 200L599 115L522 197Z" fill="#0f515e" stroke="#0f515e"></path><path d="M536 0L436 78L513 70Z" fill="#0f515e" stroke="#0f515e"></path><path d="M536 0L386 0L436 78Z" fill="#0d6370" stroke="#0d6370"></path><path d="M321 68L331 0L230 79Z" fill="#009ca7" stroke="#009ca7"></path><path d="M122 313L238 430L264 332Z" fill="#087583" stroke="#087583"></path><path d="M386 0L331 0L321 68Z" fill="#0f404b" stroke="#0f404b"></path><path d="M526 486L478 374L431 409Z" fill="#0b2027" stroke="#0b2027"></path><path d="M478 374L583 419L539 299Z" fill="#00b0b9" stroke="#00b0b9"></path><path d="M402 465L526 486L431 409Z" fill="#00d9da" stroke="#00d9da"></path><path d="M106 217L122 313L166 268Z" fill="#0e2f39" stroke="#0e2f39"></path><path d="M166 268L122 313L264 332Z" fill="#0f515e" stroke="#0f515e"></path><path d="M574 0L536 0L513 70Z" fill="#00b0b9" stroke="#00b0b9"></path><path d="M230 79L106 217L221 226Z" fill="#0d6370" stroke="#0d6370"></path><path d="M191 503L262 502L238 430Z" fill="#087583" stroke="#087583"></path><path d="M238 430L262 502L324 368Z" fill="#00c4ca" stroke="#00c4ca"></path><path d="M511 600L564 522L526 486Z" fill="#0f404b" stroke="#0f404b"></path><path d="M660 396L695 235L567 266Z" fill="#0f515e" stroke="#0f515e"></path><path d="M622 200L665 100L599 115Z" fill="#00b0b9" stroke="#00b0b9"></path><path d="M599 115L574 0L513 70Z" fill="#0f404b" stroke="#0f404b"></path><path d="M665 100L574 0L599 115Z" fill="#00c4ca" stroke="#00c4ca"></path><path d="M695 235L665 100L622 200Z" fill="#018895" stroke="#018895"></path><path d="M564 522L660 396L583 419Z" fill="#00c4ca" stroke="#00c4ca"></path><path d="M583 419L660 396L539 299Z" fill="#0b2027" stroke="#0b2027"></path><path d="M331 0L196 0L230 79Z" fill="#0d6370" stroke="#0d6370"></path><path d="M230 79L95 66L106 217Z" fill="#00d9da" stroke="#00d9da"></path><path d="M511 600L526 486L402 465Z" fill="#00b0b9" stroke="#00b0b9"></path><path d="M526 486L564 522L583 419Z" fill="#0b2027" stroke="#0b2027"></path><path d="M127 463L191 503L238 430Z" fill="#0d6370" stroke="#0d6370"></path><path d="M330 600L397 600L402 465Z" fill="#00c4ca" stroke="#00c4ca"></path><path d="M122 313L127 463L238 430Z" fill="#00c4ca" stroke="#00c4ca"></path><path d="M78 400L127 463L122 313Z" fill="#00c4ca" stroke="#00c4ca"></path><path d="M196 0L95 66L230 79Z" fill="#0f404b" stroke="#0f404b"></path><path d="M660 396L736 317L695 235Z" fill="#0f515e" stroke="#0f515e"></path><path d="M786 84L702 0L665 100Z" fill="#087583" stroke="#087583"></path><path d="M794 282L736 317L782 434Z" fill="#009ca7" stroke="#009ca7"></path><path d="M0 291L122 313L106 217Z" fill="#087583" stroke="#087583"></path><path d="M0 373L78 400L122 313Z" fill="#009ca7" stroke="#009ca7"></path><path d="M330 600L402 465L262 502Z" fill="#0e2f39" stroke="#0e2f39"></path><path d="M229 600L262 502L191 503Z" fill="#0f515e" stroke="#0f515e"></path><path d="M229 600L330 600L262 502Z" fill="#087583" stroke="#087583"></path><path d="M397 600L511 600L402 465Z" fill="#0f404b" stroke="#0f404b"></path><path d="M782 434L736 317L660 396Z" fill="#018895" stroke="#018895"></path><path d="M804 191L665 100L695 235Z" fill="#0d6370" stroke="#0d6370"></path><path d="M665 100L702 0L574 0Z" fill="#00c4ca" stroke="#00c4ca"></path><path d="M109 600L191 503L127 463Z" fill="#00b0b9" stroke="#00b0b9"></path><path d="M109 600L229 600L191 503Z" fill="#00d9da" stroke="#00d9da"></path><path d="M0 172L0 291L106 217Z" fill="#087583" stroke="#087583"></path><path d="M95 66L0 172L106 217Z" fill="#0d6370" stroke="#0d6370"></path><path d="M782 434L660 396L727 523Z" fill="#00d9da" stroke="#00d9da"></path><path d="M736 317L794 282L695 235Z" fill="#0f515e" stroke="#0f515e"></path><path d="M511 600L584 600L564 522Z" fill="#0f515e" stroke="#0f515e"></path><path d="M196 0L67 0L95 66Z" fill="#00b0b9" stroke="#00b0b9"></path><path d="M95 66L0 86L0 172Z" fill="#0e2f39" stroke="#0e2f39"></path><path d="M794 282L804 191L695 235Z" fill="#00c4ca" stroke="#00c4ca"></path><path d="M0 291L0 373L122 313Z" fill="#00d9da" stroke="#00d9da"></path><path d="M78 400L0 460L127 463Z" fill="#00d9da" stroke="#00d9da"></path><path d="M804 191L786 84L665 100Z" fill="#0f515e" stroke="#0f515e"></path><path d="M67 0L0 86L95 66Z" fill="#0d6370" stroke="#0d6370"></path><path d="M727 523L660 396L564 522Z" fill="#009ca7" stroke="#009ca7"></path><path d="M794 282L900 225L804 191Z" fill="#0d6370" stroke="#0d6370"></path><path d="M688 600L727 523L564 522Z" fill="#0e2f39" stroke="#0e2f39"></path><path d="M0 373L0 460L78 400Z" fill="#0d6370" stroke="#0d6370"></path><path d="M0 460L109 600L127 463Z" fill="#0b2027" stroke="#0b2027"></path><path d="M67 0L0 0L0 86Z" fill="#0f515e" stroke="#0f515e"></path><path d="M584 600L688 600L564 522Z" fill="#018895" stroke="#018895"></path><path d="M727 523L809 489L782 434Z" fill="#00c4ca" stroke="#00c4ca"></path><path d="M900 80L804 0L786 84Z" fill="#0b2027" stroke="#0b2027"></path><path d="M786 84L804 0L702 0Z" fill="#00b0b9" stroke="#00b0b9"></path><path d="M832 600L809 489L727 523Z" fill="#0d6370" stroke="#0d6370"></path><path d="M900 267L900 225L794 282Z" fill="#0d6370" stroke="#0d6370"></path><path d="M804 191L900 80L786 84Z" fill="#0b2027" stroke="#0b2027"></path><path d="M900 267L794 282L900 363Z" fill="#00c4ca" stroke="#00c4ca"></path><path d="M900 363L794 282L782 434Z" fill="#0b2027" stroke="#0b2027"></path><path d="M809 489L900 363L782 434Z" fill="#0b2027" stroke="#0b2027"></path><path d="M900 225L900 80L804 191Z" fill="#0f404b" stroke="#0f404b"></path><path d="M0 460L0 600L109 600Z" fill="#0f404b" stroke="#0f404b"></path><path d="M900 80L900 0L804 0Z" fill="#0d6370" stroke="#0d6370"></path><path d="M688 600L832 600L727 523Z" fill="#0e2f39" stroke="#0e2f39"></path><path d="M809 489L900 535L900 363Z" fill="#0b2027" stroke="#0b2027"></path><path d="M832 600L900 535L809 489Z" fill="#00d9da" stroke="#00d9da"></path><path d="M832 600L900 600L900 535Z" fill="#00b0b9" stroke="#00b0b9"></path></g></svg>